# Blender v2.64 (sub 0) OBJ File: 'player.blend'
# www.blender.org
mtllib player.mtl
o Cube
v 1.003466 -0.021535 -0.530263
v 1.003466 -0.021535 0.530263
v -1.003466 -0.021535 0.530263
v -1.003466 -0.021535 -0.530264
v 1.003467 1.985397 -0.530263
v 1.003466 1.985397 0.530264
v -1.003467 1.985397 0.530263
v -1.003466 1.985397 -0.530263
v 1.003466 -0.021535 -0.704347
v -1.003466 -0.021535 -0.704347
v 1.003467 1.985397 -0.704347
v -1.003466 1.985397 -0.704347
v 1.003466 -0.021535 0.689753
v -1.003466 -0.021535 0.689753
v 1.003466 1.985397 0.689753
v -1.003467 1.985397 0.689753
v 1.003466 2.558379 0.530264
v -1.003467 2.558379 0.530263
v 1.003466 2.558379 0.689753
v -1.003467 2.558379 0.689753
v 1.003467 2.564058 -0.530263
v -1.003466 2.564058 -0.530263
v 1.003467 2.564058 -0.704347
v -1.003466 2.564058 -0.704347
v 1.003467 1.985397 -1.083115
v -1.003466 1.985397 -1.083115
v 1.003467 2.564058 -1.083115
v -1.003466 2.564058 -1.083115
v 1.003466 1.985397 0.689753
v -1.003467 1.985397 0.689753
v 1.003466 2.558379 0.689753
v -1.003467 2.558379 0.689753
v 1.003466 1.985397 1.040972
v -1.003467 1.985397 1.040972
v 1.003466 2.558379 1.040972
v -1.003467 2.558379 1.040972
vt 0.626633 0.501727
vt 0.627471 0.774893
vt 0.353467 0.502565
vt 0.980662 0.183721
vt 0.979824 0.456887
vt 0.706658 0.456049
vt 0.000964 0.141563
vt 0.274130 0.142401
vt 0.000126 0.414729
vt 0.273292 0.415567
vt 0.000000 0.455810
vt 0.706532 0.414729
vt 0.433366 0.415567
vt 0.432528 0.142401
vt 0.626495 0.456887
vt 0.627597 0.457725
vt 0.900763 0.456887
vt 0.628435 0.730891
vt 0.999162 0.456887
vt 1.000000 0.730053
vt 0.901601 0.457186
vt 0.274268 0.097561
vt 0.001102 0.096723
vt 0.705694 0.141563
vt 0.432391 0.097561
vt 0.000838 0.730891
vt 0.000000 0.457725
vt 0.274004 0.730053
vt 0.706658 0.455810
vt 0.433492 0.456648
vt 0.355503 0.456887
vt 0.355377 0.415806
vt 0.627597 0.815974
vt 0.354431 0.816812
vt 0.354305 0.775731
vt 0.121519 0.731017
vt 0.120681 1.004183
vt 0.079600 1.004057
vt 0.000000 0.000000
vt 0.351281 0.415807
vt 0.351155 0.456887
vt 0.273166 0.456648
vt 0.351993 0.730292
vt 0.352831 1.003458
vt 0.274842 1.003698
vt 0.673274 0.731029
vt 0.672436 1.004195
vt 0.627597 1.004057
vt 0.353030 0.097803
vt 0.000838 1.004299
vt 0.000000 0.731133
vt 0.078762 0.730891
vt 0.353766 0.142643
vt 0.273166 0.730891
vt 0.274004 1.004057
vt 0.195242 1.004299
vt 0.770836 0.731328
vt 0.769998 1.004494
vt 0.274567 0.000000
vt 0.353628 0.097803
vt 0.353329 0.000242
vt 0.784925 0.182644
vt 0.706936 0.182883
vt 0.706658 0.092418
vt 0.274842 0.730292
vt 0.274004 0.457126
vt 0.351993 0.456887
vt 0.861301 0.730891
vt 0.862139 1.004057
vt 0.770836 0.731169
vt 0.992904 0.730630
vt 0.992066 1.003796
vt 0.901601 1.003518
vt 0.706936 0.000000
vt 0.784925 0.000239
vt 0.784648 0.090705
vt 0.707496 0.182883
vt 0.353329 0.457725
vt 0.901601 0.730053
vt 0.902439 0.730352
vt 0.705557 0.096723
vt 0.273166 0.456887
vt 0.080438 0.730891
vt 0.274004 0.730532
vt 0.352892 0.142643
vt 0.194404 0.731133
vt 0.432091 0.000000
vt 0.784648 0.092178
vt 0.352831 0.730053
vt 0.771674 1.004335
vt 0.706658 0.090466
vn 0.000000 -1.000000 0.000000
vn -0.000000 1.000000 0.000000
vn 1.000000 -0.000000 0.000000
vn -1.000000 -0.000000 -0.000000
vn 0.000000 0.000000 -1.000000
vn -0.000000 -0.000000 1.000000
vn 0.000000 0.000000 0.000000
vn 1.000000 0.000000 0.000001
vn -1.000000 -0.000000 -0.000001
usemtl Material
s off
f 1/1/1 2/2/1 4/3/1
f 5/4/2 8/5/2 7/6/2
f 1/7/3 5/8/3 2/9/3
f 2/9/3 6/10/3 13/11/3
f 3/12/4 7/13/4 8/14/4
f 1/1/1 4/3/1 9/15/1
f 11/16/5 9/17/5 12/18/5
f 11/19/1 12/20/1 25/21/1
f 11/22/3 1/7/3 9/23/3
f 4/24/4 8/14/4 12/25/4
f 13/26/6 15/27/6 14/28/6
f 14/29/4 16/30/4 7/13/4
f 20/31/4 18/32/4 7/13/4
f 13/33/1 14/34/1 3/35/1
f 17/36/2 18/37/2 20/38/2
f 30/39/7 32/39/7 16/39/7
f 17/40/3 19/41/3 15/42/3
f 6/43/5 7/44/5 18/45/5
f 23/46/2 24/47/2 22/48/2
f 5/8/3 11/22/3 23/49/3
f 21/50/6 22/51/6 8/52/6
f 12/25/4 8/14/4 22/53/4
f 25/54/5 26/55/5 28/56/5
f 27/57/2 28/58/2 24/47/2
f 23/49/3 11/22/3 25/59/3
f 12/25/4 24/60/4 28/61/4
f 29/62/3 31/63/3 35/64/3
f 15/39/7 19/39/7 29/39/7
f 29/39/7 30/39/7 15/39/7
f 19/39/7 20/39/7 31/39/7
f 35/65/6 36/66/6 34/67/6
f 33/68/1 34/69/1 29/70/1
f 31/71/2 32/72/2 36/73/2
f 34/74/4 36/75/4 32/76/4
f 2/2/1 3/35/1 4/3/1
f 6/77/2 5/4/2 7/6/2
f 5/8/8 6/10/8 2/9/8
f 6/10/3 15/42/3 13/11/3
f 4/24/9 3/12/9 8/14/9
f 4/3/1 10/78/1 9/15/1
f 9/17/5 10/79/5 12/18/5
f 12/20/1 26/80/1 25/21/1
f 5/8/3 1/7/3 11/22/3
f 10/81/4 4/24/4 12/25/4
f 15/27/6 16/82/6 14/28/6
f 3/12/4 14/29/4 7/13/4
f 16/30/4 20/31/4 7/13/4
f 2/2/1 13/33/1 3/35/1
f 19/83/2 17/36/2 20/38/2
f 32/39/7 20/39/7 16/39/7
f 6/10/3 17/40/3 15/42/3
f 17/84/5 6/43/5 18/45/5
f 21/18/2 23/46/2 22/48/2
f 21/85/3 5/8/3 23/49/3
f 5/38/6 21/50/6 8/52/6
f 24/60/4 12/25/4 22/53/4
f 27/86/5 25/54/5 28/56/5
f 23/46/2 27/57/2 24/47/2
f 27/61/3 23/49/3 25/59/3
f 26/87/4 12/25/4 28/61/4
f 33/88/3 29/62/3 35/64/3
f 19/39/7 31/39/7 29/39/7
f 30/39/7 16/39/7 15/39/7
f 20/39/7 32/39/7 31/39/7
f 33/89/6 35/65/6 34/67/6
f 34/69/1 30/90/1 29/70/1
f 35/80/2 31/71/2 36/73/2
f 30/91/4 34/74/4 32/76/4
